<svg xmlns="http://www.w3.org/2000/svg" viewBox="0 0 128 128" shape-rendering="crispEdges">
  <!-- Desk surface -->
  <!-- transparent background -->

  <!-- Ancient notebook -->
  <rect x="16" y="8" width="84" height="108" fill="#e8d5a3"/>
  <!-- Aged edges -->
  <rect x="16" y="8" width="84" height="2" fill="#d4bc82"/>
  <rect x="16" y="8" width="2" height="108" fill="#d4bc82"/>
  <rect x="98" y="8" width="2" height="108" fill="#c4a86a"/>
  <rect x="16" y="114" width="84" height="2" fill="#c4a86a"/>

  <!-- Page curl bottom-right -->
  <rect x="92" y="108" width="4" height="4" fill="#c4a86a"/>
  <rect x="96" y="104" width="4" height="4" fill="#c4a86a"/>
  <rect x="92" y="112" width="4" height="4" fill="#2c1810"/>
  <rect x="96" y="108" width="4" height="4" fill="#2c1810"/>
  <rect x="96" y="112" width="4" height="4" fill="#2c1810"/>

  <!-- Binding -->
  <rect x="12" y="6" width="8" height="112" fill="#5c3a1e"/>
  <rect x="12" y="6" width="2" height="112" fill="#4a2e16"/>
  <!-- Stitches -->
  <rect x="14" y="16" width="4" height="2" fill="#8b6b4a"/>
  <rect x="14" y="32" width="4" height="2" fill="#8b6b4a"/>
  <rect x="14" y="48" width="4" height="2" fill="#8b6b4a"/>
  <rect x="14" y="64" width="4" height="2" fill="#8b6b4a"/>
  <rect x="14" y="80" width="4" height="2" fill="#8b6b4a"/>
  <rect x="14" y="96" width="4" height="2" fill="#8b6b4a"/>

  <!-- Ruled lines -->
  <rect x="24" y="22" width="68" height="1" fill="#c4a86a40"/>
  <rect x="24" y="36" width="68" height="1" fill="#c4a86a40"/>
  <rect x="24" y="50" width="68" height="1" fill="#c4a86a40"/>
  <rect x="24" y="64" width="68" height="1" fill="#c4a86a40"/>
  <rect x="24" y="78" width="68" height="1" fill="#c4a86a40"/>
  <rect x="24" y="92" width="68" height="1" fill="#c4a86a40"/>
  <rect x="24" y="106" width="68" height="1" fill="#c4a86a40"/>

  <!-- Waveform 1: Modbus square wave -->
  <rect x="26" y="18" width="2" height="2" fill="#1a3a5c"/>
  <rect x="28" y="18" width="2" height="2" fill="#1a3a5c"/>
  <rect x="30" y="14" width="2" height="2" fill="#1a3a5c"/>
  <rect x="30" y="16" width="2" height="2" fill="#1a3a5c"/>
  <rect x="32" y="14" width="2" height="2" fill="#1a3a5c"/>
  <rect x="34" y="14" width="2" height="2" fill="#1a3a5c"/>
  <rect x="36" y="14" width="2" height="2" fill="#1a3a5c"/>
  <rect x="38" y="14" width="2" height="2" fill="#1a3a5c"/>
  <rect x="38" y="16" width="2" height="2" fill="#1a3a5c"/>
  <rect x="40" y="18" width="2" height="2" fill="#1a3a5c"/>
  <rect x="42" y="18" width="2" height="2" fill="#1a3a5c"/>
  <rect x="44" y="14" width="2" height="2" fill="#1a3a5c"/>
  <rect x="44" y="16" width="2" height="2" fill="#1a3a5c"/>
  <rect x="46" y="14" width="2" height="2" fill="#1a3a5c"/>
  <rect x="48" y="14" width="2" height="2" fill="#1a3a5c"/>
  <rect x="50" y="14" width="2" height="2" fill="#1a3a5c"/>
  <rect x="50" y="16" width="2" height="2" fill="#1a3a5c"/>
  <rect x="52" y="18" width="2" height="2" fill="#1a3a5c"/>
  <rect x="54" y="18" width="2" height="2" fill="#1a3a5c"/>
  <rect x="56" y="18" width="2" height="2" fill="#1a3a5c"/>
  <rect x="58" y="14" width="2" height="2" fill="#1a3a5c"/>
  <rect x="58" y="16" width="2" height="2" fill="#1a3a5c"/>
  <rect x="60" y="14" width="2" height="2" fill="#1a3a5c"/>
  <rect x="62" y="14" width="2" height="2" fill="#1a3a5c"/>
  <rect x="64" y="14" width="2" height="2" fill="#1a3a5c"/>
  <rect x="64" y="16" width="2" height="2" fill="#1a3a5c"/>
  <rect x="66" y="18" width="2" height="2" fill="#1a3a5c"/>
  <rect x="68" y="18" width="2" height="2" fill="#1a3a5c"/>
  <rect x="70" y="14" width="2" height="2" fill="#1a3a5c"/>
  <rect x="70" y="16" width="2" height="2" fill="#1a3a5c"/>
  <rect x="72" y="14" width="2" height="2" fill="#1a3a5c"/>
  <rect x="74" y="14" width="2" height="2" fill="#1a3a5c"/>
  <rect x="76" y="14" width="2" height="2" fill="#1a3a5c"/>
  <rect x="76" y="16" width="2" height="2" fill="#1a3a5c"/>
  <rect x="78" y="18" width="2" height="2" fill="#1a3a5c"/>
  <rect x="80" y="18" width="2" height="2" fill="#1a3a5c"/>
  <rect x="82" y="18" width="2" height="2" fill="#1a3a5c"/>
  <rect x="84" y="14" width="2" height="2" fill="#1a3a5c"/>
  <rect x="84" y="16" width="2" height="2" fill="#1a3a5c"/>
  <rect x="86" y="14" width="2" height="2" fill="#1a3a5c"/>
  <rect x="88" y="14" width="2" height="2" fill="#1a3a5c"/>

  <!-- Waveform 2: I2C SDA toggling -->
  <rect x="26" y="32" width="2" height="2" fill="#1a3a5c"/>
  <rect x="28" y="28" width="2" height="2" fill="#1a3a5c"/>
  <rect x="28" y="30" width="2" height="2" fill="#1a3a5c"/>
  <rect x="30" y="32" width="2" height="2" fill="#1a3a5c"/>
  <rect x="32" y="32" width="2" height="2" fill="#1a3a5c"/>
  <rect x="34" y="28" width="2" height="2" fill="#1a3a5c"/>
  <rect x="34" y="30" width="2" height="2" fill="#1a3a5c"/>
  <rect x="36" y="28" width="2" height="2" fill="#1a3a5c"/>
  <rect x="38" y="28" width="2" height="2" fill="#1a3a5c"/>
  <rect x="38" y="30" width="2" height="2" fill="#1a3a5c"/>
  <rect x="40" y="32" width="2" height="2" fill="#1a3a5c"/>
  <rect x="42" y="28" width="2" height="2" fill="#1a3a5c"/>
  <rect x="42" y="30" width="2" height="2" fill="#1a3a5c"/>
  <rect x="44" y="28" width="2" height="2" fill="#1a3a5c"/>
  <rect x="46" y="28" width="2" height="2" fill="#1a3a5c"/>
  <rect x="46" y="30" width="2" height="2" fill="#1a3a5c"/>
  <rect x="48" y="32" width="2" height="2" fill="#1a3a5c"/>
  <rect x="50" y="32" width="2" height="2" fill="#1a3a5c"/>
  <rect x="52" y="32" width="2" height="2" fill="#1a3a5c"/>
  <rect x="54" y="28" width="2" height="2" fill="#1a3a5c"/>
  <rect x="54" y="30" width="2" height="2" fill="#1a3a5c"/>
  <rect x="56" y="32" width="2" height="2" fill="#1a3a5c"/>
  <rect x="58" y="28" width="2" height="2" fill="#1a3a5c"/>
  <rect x="58" y="30" width="2" height="2" fill="#1a3a5c"/>
  <rect x="60" y="32" width="2" height="2" fill="#1a3a5c"/>
  <rect x="62" y="32" width="2" height="2" fill="#1a3a5c"/>
  <rect x="64" y="28" width="2" height="2" fill="#1a3a5c"/>
  <rect x="64" y="30" width="2" height="2" fill="#1a3a5c"/>
  <rect x="66" y="28" width="2" height="2" fill="#1a3a5c"/>
  <rect x="68" y="28" width="2" height="2" fill="#1a3a5c"/>
  <rect x="68" y="30" width="2" height="2" fill="#1a3a5c"/>
  <rect x="70" y="32" width="2" height="2" fill="#1a3a5c"/>
  <rect x="72" y="28" width="2" height="2" fill="#1a3a5c"/>
  <rect x="72" y="30" width="2" height="2" fill="#1a3a5c"/>
  <rect x="74" y="32" width="2" height="2" fill="#1a3a5c"/>
  <rect x="76" y="32" width="2" height="2" fill="#1a3a5c"/>
  <rect x="78" y="28" width="2" height="2" fill="#1a3a5c"/>
  <rect x="78" y="30" width="2" height="2" fill="#1a3a5c"/>
  <rect x="80" y="28" width="2" height="2" fill="#1a3a5c"/>
  <rect x="82" y="28" width="2" height="2" fill="#1a3a5c"/>
  <rect x="82" y="30" width="2" height="2" fill="#1a3a5c"/>
  <rect x="84" y="32" width="2" height="2" fill="#1a3a5c"/>
  <rect x="86" y="32" width="2" height="2" fill="#1a3a5c"/>
  <rect x="88" y="28" width="2" height="2" fill="#1a3a5c"/>
  <rect x="88" y="30" width="2" height="2" fill="#1a3a5c"/>

  <!-- Waveform 3: SPI clock regular -->
  <rect x="26" y="46" width="2" height="2" fill="#1a3a5c"/>
  <rect x="28" y="42" width="2" height="2" fill="#1a3a5c"/>
  <rect x="28" y="44" width="2" height="2" fill="#1a3a5c"/>
  <rect x="30" y="46" width="2" height="2" fill="#1a3a5c"/>
  <rect x="32" y="42" width="2" height="2" fill="#1a3a5c"/>
  <rect x="32" y="44" width="2" height="2" fill="#1a3a5c"/>
  <rect x="34" y="46" width="2" height="2" fill="#1a3a5c"/>
  <rect x="36" y="42" width="2" height="2" fill="#1a3a5c"/>
  <rect x="36" y="44" width="2" height="2" fill="#1a3a5c"/>
  <rect x="38" y="46" width="2" height="2" fill="#1a3a5c"/>
  <rect x="40" y="42" width="2" height="2" fill="#1a3a5c"/>
  <rect x="40" y="44" width="2" height="2" fill="#1a3a5c"/>
  <rect x="42" y="46" width="2" height="2" fill="#1a3a5c"/>
  <rect x="44" y="42" width="2" height="2" fill="#1a3a5c"/>
  <rect x="44" y="44" width="2" height="2" fill="#1a3a5c"/>
  <rect x="46" y="46" width="2" height="2" fill="#1a3a5c"/>
  <rect x="48" y="42" width="2" height="2" fill="#1a3a5c"/>
  <rect x="48" y="44" width="2" height="2" fill="#1a3a5c"/>
  <rect x="50" y="46" width="2" height="2" fill="#1a3a5c"/>
  <rect x="52" y="42" width="2" height="2" fill="#1a3a5c"/>
  <rect x="52" y="44" width="2" height="2" fill="#1a3a5c"/>
  <rect x="54" y="46" width="2" height="2" fill="#1a3a5c"/>
  <rect x="56" y="42" width="2" height="2" fill="#1a3a5c"/>
  <rect x="56" y="44" width="2" height="2" fill="#1a3a5c"/>
  <rect x="58" y="46" width="2" height="2" fill="#1a3a5c"/>
  <rect x="60" y="42" width="2" height="2" fill="#1a3a5c"/>
  <rect x="60" y="44" width="2" height="2" fill="#1a3a5c"/>
  <rect x="62" y="46" width="2" height="2" fill="#1a3a5c"/>
  <rect x="64" y="42" width="2" height="2" fill="#1a3a5c"/>
  <rect x="64" y="44" width="2" height="2" fill="#1a3a5c"/>
  <rect x="66" y="46" width="2" height="2" fill="#1a3a5c"/>
  <rect x="68" y="42" width="2" height="2" fill="#1a3a5c"/>
  <rect x="68" y="44" width="2" height="2" fill="#1a3a5c"/>
  <rect x="70" y="46" width="2" height="2" fill="#1a3a5c"/>
  <rect x="72" y="42" width="2" height="2" fill="#1a3a5c"/>
  <rect x="72" y="44" width="2" height="2" fill="#1a3a5c"/>
  <rect x="74" y="46" width="2" height="2" fill="#1a3a5c"/>
  <rect x="76" y="42" width="2" height="2" fill="#1a3a5c"/>
  <rect x="76" y="44" width="2" height="2" fill="#1a3a5c"/>
  <rect x="78" y="46" width="2" height="2" fill="#1a3a5c"/>
  <rect x="80" y="42" width="2" height="2" fill="#1a3a5c"/>
  <rect x="80" y="44" width="2" height="2" fill="#1a3a5c"/>
  <rect x="82" y="46" width="2" height="2" fill="#1a3a5c"/>
  <rect x="84" y="42" width="2" height="2" fill="#1a3a5c"/>
  <rect x="84" y="44" width="2" height="2" fill="#1a3a5c"/>
  <rect x="86" y="46" width="2" height="2" fill="#1a3a5c"/>
  <rect x="88" y="42" width="2" height="2" fill="#1a3a5c"/>
  <rect x="88" y="44" width="2" height="2" fill="#1a3a5c"/>

  <!-- Waveform 4: I3C burst pattern -->
  <rect x="26" y="60" width="2" height="2" fill="#1a3a5c"/>
  <rect x="28" y="60" width="2" height="2" fill="#1a3a5c"/>
  <rect x="30" y="56" width="2" height="2" fill="#1a3a5c"/>
  <rect x="30" y="58" width="2" height="2" fill="#1a3a5c"/>
  <rect x="32" y="60" width="2" height="2" fill="#1a3a5c"/>
  <rect x="34" y="56" width="2" height="2" fill="#1a3a5c"/>
  <rect x="34" y="58" width="2" height="2" fill="#1a3a5c"/>
  <rect x="36" y="56" width="2" height="2" fill="#1a3a5c"/>
  <rect x="38" y="56" width="2" height="2" fill="#1a3a5c"/>
  <rect x="38" y="58" width="2" height="2" fill="#1a3a5c"/>
  <rect x="40" y="60" width="2" height="2" fill="#1a3a5c"/>
  <rect x="42" y="60" width="2" height="2" fill="#1a3a5c"/>
  <rect x="44" y="60" width="2" height="2" fill="#1a3a5c"/>
  <rect x="46" y="56" width="2" height="2" fill="#1a3a5c"/>
  <rect x="46" y="58" width="2" height="2" fill="#1a3a5c"/>
  <rect x="48" y="56" width="2" height="2" fill="#1a3a5c"/>
  <rect x="50" y="56" width="2" height="2" fill="#1a3a5c"/>
  <rect x="50" y="58" width="2" height="2" fill="#1a3a5c"/>
  <rect x="52" y="60" width="2" height="2" fill="#1a3a5c"/>
  <rect x="54" y="56" width="2" height="2" fill="#1a3a5c"/>
  <rect x="54" y="58" width="2" height="2" fill="#1a3a5c"/>
  <rect x="56" y="60" width="2" height="2" fill="#1a3a5c"/>
  <rect x="58" y="60" width="2" height="2" fill="#1a3a5c"/>
  <rect x="60" y="56" width="2" height="2" fill="#1a3a5c"/>
  <rect x="60" y="58" width="2" height="2" fill="#1a3a5c"/>
  <rect x="62" y="56" width="2" height="2" fill="#1a3a5c"/>
  <rect x="64" y="56" width="2" height="2" fill="#1a3a5c"/>
  <rect x="64" y="58" width="2" height="2" fill="#1a3a5c"/>
  <rect x="66" y="60" width="2" height="2" fill="#1a3a5c"/>
  <rect x="68" y="60" width="2" height="2" fill="#1a3a5c"/>
  <rect x="70" y="60" width="2" height="2" fill="#1a3a5c"/>
  <rect x="72" y="56" width="2" height="2" fill="#1a3a5c"/>
  <rect x="72" y="58" width="2" height="2" fill="#1a3a5c"/>
  <rect x="74" y="60" width="2" height="2" fill="#1a3a5c"/>
  <rect x="76" y="56" width="2" height="2" fill="#1a3a5c"/>
  <rect x="76" y="58" width="2" height="2" fill="#1a3a5c"/>
  <rect x="78" y="56" width="2" height="2" fill="#1a3a5c"/>
  <rect x="80" y="56" width="2" height="2" fill="#1a3a5c"/>
  <rect x="80" y="58" width="2" height="2" fill="#1a3a5c"/>
  <rect x="82" y="60" width="2" height="2" fill="#1a3a5c"/>
  <rect x="84" y="60" width="2" height="2" fill="#1a3a5c"/>
  <rect x="86" y="56" width="2" height="2" fill="#1a3a5c"/>
  <rect x="86" y="58" width="2" height="2" fill="#1a3a5c"/>
  <rect x="88" y="60" width="2" height="2" fill="#1a3a5c"/>

  <!-- Waveform 5: Sine-ish analog wave -->
  <rect x="26" y="72" width="2" height="2" fill="#1a3a5c"/>
  <rect x="28" y="70" width="2" height="2" fill="#1a3a5c"/>
  <rect x="30" y="68" width="2" height="2" fill="#1a3a5c"/>
  <rect x="32" y="68" width="2" height="2" fill="#1a3a5c"/>
  <rect x="34" y="70" width="2" height="2" fill="#1a3a5c"/>
  <rect x="36" y="72" width="2" height="2" fill="#1a3a5c"/>
  <rect x="38" y="74" width="2" height="2" fill="#1a3a5c"/>
  <rect x="40" y="76" width="2" height="2" fill="#1a3a5c"/>
  <rect x="42" y="76" width="2" height="2" fill="#1a3a5c"/>
  <rect x="44" y="74" width="2" height="2" fill="#1a3a5c"/>
  <rect x="46" y="72" width="2" height="2" fill="#1a3a5c"/>
  <rect x="48" y="70" width="2" height="2" fill="#1a3a5c"/>
  <rect x="50" y="68" width="2" height="2" fill="#1a3a5c"/>
  <rect x="52" y="68" width="2" height="2" fill="#1a3a5c"/>
  <rect x="54" y="70" width="2" height="2" fill="#1a3a5c"/>
  <rect x="56" y="72" width="2" height="2" fill="#1a3a5c"/>
  <rect x="58" y="74" width="2" height="2" fill="#1a3a5c"/>
  <rect x="60" y="76" width="2" height="2" fill="#1a3a5c"/>
  <rect x="62" y="76" width="2" height="2" fill="#1a3a5c"/>
  <rect x="64" y="74" width="2" height="2" fill="#1a3a5c"/>
  <rect x="66" y="72" width="2" height="2" fill="#1a3a5c"/>
  <rect x="68" y="70" width="2" height="2" fill="#1a3a5c"/>
  <rect x="70" y="68" width="2" height="2" fill="#1a3a5c"/>
  <rect x="72" y="68" width="2" height="2" fill="#1a3a5c"/>
  <rect x="74" y="70" width="2" height="2" fill="#1a3a5c"/>
  <rect x="76" y="72" width="2" height="2" fill="#1a3a5c"/>
  <rect x="78" y="74" width="2" height="2" fill="#1a3a5c"/>
  <rect x="80" y="76" width="2" height="2" fill="#1a3a5c"/>
  <rect x="82" y="76" width="2" height="2" fill="#1a3a5c"/>
  <rect x="84" y="74" width="2" height="2" fill="#1a3a5c"/>
  <rect x="86" y="72" width="2" height="2" fill="#1a3a5c"/>
  <rect x="88" y="70" width="2" height="2" fill="#1a3a5c"/>

  <!-- Ink spots / aging -->
  <rect x="76" y="86" width="2" height="2" fill="#c4a86a80"/>
  <rect x="36" y="96" width="2" height="2" fill="#c4a86a60"/>
  <rect x="82" y="100" width="2" height="2" fill="#c4a86a60"/>
  <rect x="58" y="88" width="2" height="2" fill="#c4a86a80"/>
  <rect x="44" y="104" width="2" height="2" fill="#c4a86a50"/>

  <!-- Fountain pen (angled, resting on page) -->
  <!-- Cap (top right, detached) -->
  <rect x="116" y="40" width="2" height="2" fill="#1a1a1a"/>
  <rect x="112" y="42" width="4" height="4" fill="#1a1a1a"/>
  <rect x="112" y="46" width="4" height="2" fill="#c4a135"/>
  <rect x="108" y="46" width="4" height="4" fill="#1a1a1a"/>
  <rect x="104" y="50" width="4" height="4" fill="#1a1a1a"/>

  <!-- Pen body -->
  <rect x="104" y="62" width="4" height="4" fill="#2a2a2a"/>
  <rect x="100" y="66" width="4" height="4" fill="#2a2a2a"/>
  <rect x="96" y="70" width="4" height="4" fill="#2a2a2a"/>
  <rect x="92" y="74" width="4" height="4" fill="#2a2a2a"/>
  <rect x="88" y="78" width="4" height="4" fill="#2a2a2a"/>
  <!-- Barrel highlight -->
  <rect x="106" y="62" width="2" height="4" fill="#4a4a4a"/>
  <rect x="102" y="66" width="2" height="4" fill="#4a4a4a"/>
  <rect x="98" y="70" width="2" height="4" fill="#4a4a4a"/>
  <rect x="94" y="74" width="2" height="4" fill="#4a4a4a"/>

  <!-- Gold band -->
  <rect x="86" y="80" width="4" height="2" fill="#c4a135"/>
  <rect x="84" y="82" width="4" height="2" fill="#c4a135"/>

  <!-- Nib -->
  <rect x="82" y="84" width="4" height="4" fill="#c4a135"/>
  <rect x="78" y="88" width="4" height="4" fill="#c4a135"/>
  <rect x="76" y="90" width="2" height="2" fill="#8b7525"/>
  <rect x="74" y="92" width="2" height="2" fill="#8b7525"/>

  <!-- Ink trail -->
  <rect x="72" y="94" width="2" height="2" fill="#1a3a5c"/>
  <rect x="70" y="94" width="2" height="2" fill="#1a3a5c90"/>
  <rect x="68" y="96" width="2" height="2" fill="#1a3a5c60"/>

  <!-- Second page behind -->
  <rect x="18" y="118" width="78" height="2" fill="#d4bc82"/>
  <rect x="20" y="120" width="74" height="2" fill="#c4a86a"/>
</svg>